# xmcd
#
# Track frame offsets:
#	150
#	34988
#	59656
#	78512
#	106410
#	131481
#	155399
#	182602
#	210541
#	229805
#
# Disc length: 3331 seconds
#
# Revision: 2
# Processed by: cddbd v1.5.2PL0 Copyright (c) Steve Scherf et al.
# Submitted via: EasyCDDAExtractor 5.0.2.1
#
DISCID=850d010a
DTITLE=Various Artist - Kabhi To Nazar Milao
DYEAR=2000
DGENRE=Indi Pop
TTITLE0=Adnan Sami and Asha Bhosle - Kabhi To Nazar Milao
TTITLE1=Adnan Sami and Asha Bhosle - Mehndi Masala
TTITLE2=Adnan Sami - Lift Karadey
TTITLE3=Adnan Sami - Bheega Mausam
TTITLE4=Adnan Sami and Asha Bhosle - Pyar Hai
TTITLE5=Adnan Sami and Asha Bhosle - Pyar Bina
TTITLE6=Adnan Sami - Barsaat
TTITLE7=Adnan Sami and Asha Bhosle - Dholki
TTITLE8=Asha Bhosle - Kabhi To Nazar Milao (Unplugged Version)
TTITLE9=Adnan Sami - Barsaat (Unplugged Version)
EXTD=
EXTT0=
EXTT1=
EXTT2=
EXTT3=
EXTT4=
EXTT5=
EXTT6=
EXTT7=
EXTT8=
EXTT9=
PLAYORDER=
